<?xml version="1.0" encoding="utf-8"?>
<!-- Generator: Adobe Illustrator 20.1.0, SVG Export Plug-In . SVG Version: 6.00 Build 0)  -->
<svg version="1.1"
	 id="svg2" inkscape:version="0.91 r13725" sodipodi:docname="001-horizontal-small-logo.svg" xmlns:cc="http://creativecommons.org/ns#" xmlns:dc="http://purl.org/dc/elements/1.1/" xmlns:inkscape="http://www.inkscape.org/namespaces/inkscape" xmlns:rdf="http://www.w3.org/1999/02/22-rdf-syntax-ns#" xmlns:sodipodi="http://sodipodi.sourceforge.net/DTD/sodipodi-0.dtd" xmlns:svg="http://www.w3.org/2000/svg"
	 xmlns="http://www.w3.org/2000/svg" xmlns:xlink="http://www.w3.org/1999/xlink" x="0px" y="0px" viewBox="0 0 190 37.5"
	 style="enable-background:new 0 0 190 37.5;" xml:space="preserve">
<style type="text/css">
	.st0{display:none;}
	.st1{fill:url(#path252_1_);}
	.st2{fill:#666666;}
</style>
<sodipodi:namedview  bordercolor="#666666" borderopacity="1" gridtolerance="10" guidetolerance="10" id="namedview285" inkscape:current-layer="Layer_1" inkscape:cx="94.341832" inkscape:cy="-10.397822" inkscape:pageopacity="0" inkscape:pageshadow="2" inkscape:window-height="480" inkscape:window-maximized="0" inkscape:window-width="640" inkscape:window-x="0" inkscape:window-y="132" inkscape:zoom="1.8421053" objecttolerance="10" pagecolor="#ffffff" showgrid="false">
	</sodipodi:namedview>
<g id="guias" class="st0">
</g>
<g id="Layer_1">
	<g id="g245">
		
			<linearGradient id="path252_1_" gradientUnits="userSpaceOnUse" x1="2344.5322" y1="-4394.7583" x2="2381.1575" y2="-4394.7583" gradientTransform="matrix(0.5915 -0.8063 -0.8063 -0.5915 -4918.8481 -675.544)">
			<stop  offset="0" style="stop-color:#EAC44B"/>
			<stop  offset="1" style="stop-color:#589CA5"/>
		</linearGradient>
		<path id="path252" class="st1" d="M24.6,1.7c-4.6,0-8.6,1.6-11.8,5C9.7,9.9,8.1,13.9,8,18.5H3.3c0,4.8,1.6,8.9,4.8,12.2
			s7.1,5,11.8,5c4.6,0,8.6-1.6,11.8-5c3.1-3.2,4.7-7.1,4.9-11.7h4.7c0-4.8-1.6-8.9-4.8-12.2C33.2,3.4,29.3,1.8,24.6,1.7z M32,11.4
			c1.9,2,2.9,4.4,3,7.2h-4.7c0,3-1,5.6-3,7.6c-2,2.1-4.5,3.1-7.4,3.1s-5.4-1.1-7.4-3.1c-1.9-2-2.9-4.4-3-7.2h4.7c0-3,1-5.6,3-7.6
			c2-2.1,4.5-3.1,7.4-3.1C27.5,8.3,30,9.3,32,11.4z"/>
	</g>
	<g id="g254">
		<g id="g256">
			<path id="path258" class="st2" d="M135.3,25.2c1.3,0,2.5-0.5,3.4-1.5s1.3-2.2,1.3-3.7s-0.4-2.7-1.4-3.7c-0.9-1-2-1.5-3.3-1.5
				s-2.5,0.5-3.4,1.5s-1.4,2.2-1.4,3.7s0.5,2.7,1.4,3.7S133.9,25.2,135.3,25.2z M135.3,13.5c1.7,0,3.2,0.6,4.3,1.9
				c1.2,1.2,1.7,2.8,1.7,4.7s-0.6,3.4-1.7,4.6c-1.2,1.2-2.6,1.9-4.3,1.9s-3.2-0.6-4.3-1.9c-1.2-1.2-1.8-2.8-1.8-4.6
				c0-1.9,0.6-3.4,1.8-4.7C132.1,14.2,133.6,13.5,135.3,13.5z"/>
			<path id="path260" class="st2" d="M186.8,14.8v1.4c-1.2-0.8-2.3-1.3-3.3-1.3c-0.7,0-1.3,0.2-1.8,0.6c-0.5,0.4-0.7,0.9-0.7,1.5
				c0,0.4,0.2,0.8,0.5,1.2c0.3,0.4,1.1,0.8,2.5,1.4c1.3,0.5,2.2,1.1,2.6,1.7c0.4,0.6,0.6,1.2,0.6,2c0,1-0.4,1.8-1.1,2.4
				c-0.8,0.7-1.7,1-2.8,1c-1.2,0-2.4-0.4-3.6-1.1v-1.3c1.4,0.8,2.7,1.1,3.8,1.1c0.7,0,1.3-0.2,1.8-0.6s0.7-0.9,0.7-1.6
				c0-0.4-0.2-0.8-0.5-1.2c-0.3-0.4-1.1-0.8-2.5-1.4s-2.2-1.1-2.6-1.7c-0.4-0.5-0.6-1.1-0.6-1.8c0-1,0.4-1.8,1.1-2.4
				c0.8-0.7,1.7-1,2.7-1C184.6,13.7,185.7,14.1,186.8,14.8z"/>
			<path id="path262" class="st2" d="M161.9,13.8c-1.3,0-2.5,0.4-3.3,1.3v-1.4h-1.2v5.2v0.5v7.3h1.3v-7.3c0-2.9,1.1-4.3,3.2-4.3
				c0.9,0,1.7,0.3,2.2,0.9l1.1-0.8C164.4,14.2,163.3,13.8,161.9,13.8z"/>
			<path id="path264" class="st2" d="M126.4,20.2c0,1.5-0.4,2.7-1.3,3.7s-2,1.5-3.4,1.5c-1.3,0-2.5-0.5-3.4-1.5s-1.3-2.2-1.3-3.7
				s0.5-2.7,1.3-3.7c0.9-1,2-1.5,3.4-1.5c1.3,0,2.5,0.5,3.4,1.5S126.4,18.7,126.4,20.2z M127.8,20.2c0-1.8-0.6-3.4-1.7-4.6
				c-1.2-1.2-2.6-1.9-4.3-1.9c-1.7,0-3.2,0.6-4.3,1.9c-0.2,0.2-0.3,0.4-0.5,0.6V7.7h-1.3v19h1.3v-2.4c0.2,0.2,0.3,0.4,0.5,0.6
				c1.2,1.2,2.6,1.9,4.3,1.9c1.7,0,3.2-0.6,4.3-1.9C127.2,23.7,127.8,22.1,127.8,20.2z"/>
			<path id="path266" class="st2" d="M168.1,16.5c0.9-1,2-1.5,3.4-1.5c1.3,0,2.5,0.5,3.4,1.5s1.4,2.2,1.4,3.7s-0.5,2.7-1.4,3.7
				s-2,1.5-3.4,1.5c-1.3,0-2.4-0.5-3.3-1.5c-0.9-1-1.4-2.2-1.4-3.7S167.2,17.5,168.1,16.5z M167.1,24.9c1.2,1.2,2.6,1.9,4.3,1.9
				s3.2-0.6,4.3-1.9c0.2-0.2,0.3-0.4,0.5-0.6v2.4h1.3v-19h-1.3v8.4c-0.1-0.2-0.3-0.4-0.5-0.6c-1.2-1.2-2.6-1.9-4.3-1.9
				s-3.2,0.6-4.3,1.9c-1.2,1.2-1.7,2.8-1.7,4.6S166,23.7,167.1,24.9z"/>
			<path id="path268" class="st2" d="M152.3,23.7c-0.9,1-2,1.5-3.4,1.5s-2.5-0.5-3.4-1.5s-1.4-2.2-1.4-3.7s0.4-2.7,1.4-3.7
				c0.9-1,2-1.5,3.4-1.5c1.3,0,2.4,0.5,3.3,1.5c0.9,1,1.4,2.2,1.4,3.7l0,0C153.6,21.5,153.2,22.8,152.3,23.7z M155,19.9
				c0-1.8-0.6-3.3-1.7-4.5c-1.2-1.2-2.6-1.9-4.3-1.9s-3.2,0.6-4.3,1.9c-1.2,1.2-1.8,2.8-1.8,4.7s0.6,3.4,1.8,4.6s2.6,1.9,4.3,1.9
				s3.2-0.6,4.3-1.9c0.1-0.1,0.3-0.3,0.4-0.4v2.5h1.3V19.9L155,19.9z"/>
		</g>
		<g id="g270">
			<path id="path272" class="st2" d="M58.3,14.8v1.4C57.1,15.4,56,15,55.1,15c-0.7,0-1.3,0.2-1.8,0.6c-0.5,0.4-0.7,0.9-0.7,1.5
				c0,0.4,0.2,0.8,0.4,1.2c0.3,0.4,1.1,0.8,2.5,1.4c1.3,0.5,2.2,1.1,2.7,1.7c0.4,0.6,0.6,1.2,0.6,2c0,1-0.4,1.8-1.1,2.4
				c-0.8,0.7-1.7,1-2.8,1c-1.2,0-2.4-0.4-3.6-1.1v-1.3c1.4,0.8,2.7,1.1,3.8,1.1c0.7,0,1.3-0.2,1.8-0.6s0.7-0.9,0.7-1.6
				c0-0.4-0.2-0.8-0.5-1.2c-0.3-0.4-1.1-0.8-2.5-1.4S52.4,19.6,52,19c-0.4-0.5-0.6-1.1-0.6-1.8c0-1,0.4-1.8,1.1-2.4
				c0.8-0.7,1.7-1,2.7-1C56.1,13.7,57.2,14.1,58.3,14.8z"/>
			<path id="path274" class="st2" d="M77.6,13.8c-1.3,0-2.5,0.4-3.3,1.3v-1.4h-1.2v5.2v0.5v7.3h1.3v-7.3c0-2.9,1.1-4.3,3.2-4.3
				c0.9,0,1.7,0.3,2.2,0.9l1.1-0.8C80.1,14.2,79,13.8,77.6,13.8z"/>
			<path id="path276" class="st2" d="M110.7,13.8c-1.3,0-2.5,0.4-3.3,1.3v-1.4h-1.2v5.2v0.5v7.3h1.3v-7.3c0-2.9,1.1-4.3,3.2-4.3
				c0.9,0,1.7,0.3,2.2,0.9l1.1-0.8C113.3,14.2,112.1,13.8,110.7,13.8z"/>
			<polygon id="polygon278" class="st2" points="91.6,13.7 87.3,25.2 83.1,13.7 81.9,13.7 86.6,26.7 88.1,26.7 92.8,13.7 			"/>
			<path id="path280" class="st2" d="M71.8,20c0-1.8-0.6-3.4-1.7-4.6c-1.2-1.2-2.6-1.9-4.3-1.9c-1.7,0-3.2,0.6-4.3,1.9
				c-1.2,1.2-1.7,2.8-1.7,4.7s0.6,3.4,1.7,4.6c1.2,1.2,2.6,1.9,4.3,1.9v-1.3c-1.3,0-2.5-0.5-3.4-1.5s-1.3-2.2-1.3-3.7
				s0.4-2.7,1.3-3.7c0.9-1,2-1.5,3.4-1.5c1.3,0,2.5,0.5,3.4,1.5s1.3,2.2,1.3,3.7h-4.7v1.3h6.1V20H71.8z"/>
			<path id="path282" class="st2" d="M104.8,20c0-1.8-0.6-3.4-1.7-4.6c-1.2-1.2-2.6-1.9-4.3-1.9c-1.7,0-3.2,0.6-4.3,1.9
				c-1.2,1.2-1.7,2.8-1.7,4.7s0.6,3.4,1.7,4.6c1.2,1.2,2.6,1.9,4.3,1.9v-1.3c-1.3,0-2.5-0.5-3.4-1.5s-1.3-2.2-1.3-3.7
				s0.4-2.7,1.3-3.7s2-1.5,3.4-1.5c1.3,0,2.4,0.5,3.3,1.5s1.3,2.2,1.3,3.7h-4.7v1.3h6.1L104.8,20L104.8,20z"/>
		</g>
	</g>
</g>
<g id="Capa_2">
</g>
</svg>
